# xmcd CD database file
#
# Track frame offsets:
#	225
#	20872
#	45632
#	69768
#	86846
#	100743
#	118436
#	136646
#	155588
#	168900
#	189565
#	210489
#	229034
#	243818
#	262283
#
# Disc length: 3671 seconds
#
# Revision: 2
# Processed by: cddbd v1.5PL3 Copyright (c) Steve Scherf et al.
# Submitted via: CDex 1.51
#
DISCID=cd0e540f
DTITLE=Jessica Williams - Jessica Williams 
DYEAR=1999
DGENRE=Jazz
TTITLE0=Angelica
TTITLE1=In A Sentimental Mood
TTITLE2=Prelude To A Kiss
TTITLE3=Solitude
TTITLE4=Satin Doll
TTITLE5=C-Jam Blues
TTITLE6=Warm Valley
TTITLE7=I Let A Song Go Out Of My Heart
TTITLE8=It Don't Mean A Thing
TTITLE9=Things Ain't What They Used To Be
TTITLE10=Do Nothing Till You Hear From Me
TTITLE11=Sophisticated Lady 
TTITLE12=I Got It Bad And That Ain't Good
TTITLE13=Take The "A" Train
TTITLE14=Don't Get Around Much Anymore
EXTD=YEAR: 1999
EXTT0=
EXTT1=
EXTT2=
EXTT3=
EXTT4=
EXTT5=
EXTT6=
EXTT7=
EXTT8=
EXTT9=
EXTT10=
EXTT11=
EXTT12=
EXTT13=
EXTT14=
PLAYORDER=
